<?xml version="1.0" encoding="UTF-8"?>
<!-- Generator: visioncortex VTracer 0.6.3 -->
<svg version="1.1" xmlns="http://www.w3.org/2000/svg" width="1280" height="1280">
<path d="M0 0 C422.4 0 844.8 0 1280 0 C1280 422.4 1280 844.8 1280 1280 C857.6 1280 435.2 1280 0 1280 C0 857.6 0 435.2 0 0 Z " fill="#7C5BA9" transform="translate(0,0)"/>
<path d="M0 0 C11.76 6.05 18.63 19.84 23.44 31.62 C23.95 33.45 24.42 35.28 24.85 37.12 C26.58 44.84 26.58 44.84 30.44 51.62 C36.24 54.96 43.13 55.4 49.67 56.2 C59.37 57.68 70.25 61.77 76.44 69.62 C81.07 76.31 82.66 82.56 81.44 90.62 C77.26 107.01 62.97 117.44 49.34 125.97 C46.44 127.62 46.44 127.62 44.44 127.62 C44.87 129.51 44.87 129.51 45.31 131.44 C52.15 162.43 52.15 162.43 45.07 175.06 C41.23 181.01 41.23 181.01 38.85 182.85 C36.72 185.54 37.2 187.67 37.36 191.04 C37.42 192.3 37.47 193.55 37.53 194.84 C37.6 196.15 37.67 197.46 37.75 198.81 C37.81 200.15 37.88 201.48 37.94 202.82 C38.09 206.09 38.26 209.36 38.44 212.62 C39.17 212.15 39.91 211.67 40.67 211.18 C41.64 210.55 42.62 209.92 43.62 209.27 C44.59 208.65 45.55 208.03 46.54 207.39 C56.88 201.09 66.63 199.35 78.44 202.19 C103.34 208.84 119.95 231.3 132.44 252.62 C142.44 270.37 142.44 270.37 142.44 273.62 C145.92 274.79 148.57 274.71 152.25 274.65 C153.64 274.64 155.03 274.62 156.42 274.61 C157.15 274.6 157.87 274.59 158.62 274.59 C218.97 273.98 218.97 273.98 238.34 292.44 C248.62 303.57 249.13 314.56 248.61 329.12 C248.24 334.42 246.72 338.86 244.44 343.62 C243.71 345.19 243.71 345.19 242.96 346.78 C232.05 368.48 212.87 387.36 193.44 401.62 C194.02 405.15 194.94 408 196.55 411.18 C196.97 412.03 197.39 412.89 197.83 413.77 C198.28 414.67 198.73 415.57 199.19 416.5 C206.53 431.59 212.48 447.7 213.44 464.62 C213.52 465.96 213.52 465.96 213.6 467.32 C214.07 482.74 210.34 497.51 199.69 509.06 C187.44 520.25 173.74 521.38 157.94 520.77 C135.7 519.49 113.82 512.05 93.66 502.92 C93.04 502.64 92.41 502.36 91.77 502.07 C90.06 501.3 88.36 500.52 86.66 499.73 C83.03 498.49 80.24 498.32 76.44 498.62 C74.15 500.02 74.15 500.02 72.44 501.62 C71.78 501.62 71.12 501.62 70.44 501.62 C70.5 502.31 70.56 503 70.62 503.71 C73.38 535.47 75.28 569.92 54.81 596.69 C53.7 598.01 52.57 599.32 51.44 600.62 C51 601.21 50.57 601.8 50.12 602.4 C41.92 613.16 28.64 619.83 15.44 621.62 C-4.89 622.92 -22 616.02 -37.26 602.84 C-40.12 600.09 -42.69 597.19 -45.12 594.06 C-46.58 592.27 -46.58 592.27 -49.56 592.62 C-51.95 593.79 -54.28 595 -56.62 596.25 C-62.35 599.2 -68.08 601.76 -74.19 603.81 C-74.92 604.06 -75.65 604.31 -76.4 604.57 C-80.71 605.95 -84.91 606.89 -89.38 607.54 C-99.01 608.53 -99.01 608.53 -107 613.21 C-109.18 617.1 -110.1 621.3 -111.05 625.62 C-113.8 636.38 -123.3 647.02 -132.59 652.91 C-147.1 661.17 -161.99 662.6 -178.47 660.01 C-192.39 656.1 -203.65 647.86 -213.56 637.62 C-214.17 637 -214.77 636.38 -215.39 635.74 C-220.5 629.73 -222.99 621.9 -225.79 614.63 C-226.04 613.97 -226.3 613.31 -226.56 612.62 C-226.81 611.76 -227.06 610.9 -227.31 610.02 C-228.38 607.42 -228.38 607.42 -231.03 606.36 C-232.06 606.06 -233.08 605.76 -234.14 605.45 C-235.27 605.1 -236.41 604.75 -237.58 604.39 C-238.79 604.04 -240 603.68 -241.25 603.31 C-263.14 596.44 -283.79 585.53 -296.56 565.62 C-297.08 564.55 -297.59 563.48 -298.12 562.38 C-299.66 559.44 -300.7 558.23 -303.56 556.62 C-306.21 555.91 -306.21 555.91 -308.56 555.62 C-308.82 556.51 -309.07 557.4 -309.34 558.31 C-312.76 567.57 -320.6 574.17 -328.94 579 C-335.71 580.61 -341.55 580.24 -347.68 576.89 C-358 569.96 -361.18 559.41 -363.56 547.62 C-363.77 546.64 -363.97 545.66 -364.18 544.65 C-364.66 542.31 -365.12 539.97 -365.56 537.62 C-367 537.3 -367 537.3 -368.46 536.96 C-378.78 534.47 -389.76 531.4 -396.56 522.62 C-399.63 515.91 -398.95 509.66 -396.62 502.81 C-393.92 495.6 -390.06 490.91 -384.56 485.62 C-383.89 484.93 -383.22 484.24 -382.53 483.53 C-379.96 480.88 -377.65 478.68 -374.56 476.62 C-374.09 473.37 -374.09 473.37 -374.16 469.54 C-374.16 468.48 -374.16 468.48 -374.16 467.41 C-374.15 465.93 -374.16 464.45 -374.17 462.97 C-374.19 460.7 -374.17 458.43 -374.15 456.17 C-374.15 454.73 -374.16 453.29 -374.16 451.85 C-374.17 450.54 -374.17 449.22 -374.17 447.87 C-374.28 444.68 -374.28 444.68 -375.92 442.78 C-378.31 441.1 -380.73 439.5 -383.19 437.94 C-406.45 422.5 -416.56 400.22 -422.56 373.62 C-429.74 337.72 -419.42 300.33 -404.46 267.78 C-394.81 246.78 -391.51 226.09 -389.85 203.16 C-386.32 154.31 -369.54 108.32 -335.56 72.62 C-334.87 71.87 -334.18 71.11 -333.46 70.33 C-322.66 58.9 -309.45 49.87 -295.56 42.62 C-294.47 42.03 -293.38 41.44 -292.25 40.83 C-264.74 26.41 -234.44 19.38 -203.5 19.44 C-202.47 19.44 -202.47 19.44 -201.41 19.44 C-191.01 19.47 -180.82 19.71 -170.56 21.62 C-169.7 21.79 -168.83 21.95 -167.94 22.11 C-142.67 26.98 -117.99 34.83 -95.61 47.75 C-93.22 48.77 -91.95 48.72 -89.4 48.34 C-88.61 48.23 -87.83 48.12 -87.02 48.01 C-86.21 47.88 -85.4 47.76 -84.56 47.62 C-83.4 47.45 -83.4 47.45 -82.22 47.27 C-79.01 46.77 -75.8 46.24 -72.6 45.69 C-68.24 44.96 -64.31 44.61 -59.88 44.81 C-57.58 44.75 -57.58 44.75 -55.56 43.62 C-52.72 39.86 -50.72 35.8 -48.61 31.59 C-39.65 14.71 -21.5 -8.05 0 0 Z " fill="#37104B" transform="translate(726.5625,309.375)"/>
<path d="M0 0 C17.94 15.75 33.42 36.06 35.32 60.69 C35.42 62.59 35.51 64.48 35.57 66.38 C31.45 68.01 28.86 68.64 24.57 67.38 C24.62 65.66 24.62 65.66 24.68 63.9 C25.07 45.51 21.35 30.09 9.2 15.88 C-3.32 3.05 -20.72 -3.72 -38.59 -4 C-64.28 -3.95 -86.88 4.2 -105.43 22.38 C-106.13 23.04 -106.83 23.71 -107.55 24.39 C-119.93 37.06 -125.84 55.34 -125.64 72.73 C-124.86 86.4 -119.03 100.12 -108.88 109.42 C-102.5 114.52 -95.46 118.51 -88.21 122.24 C-86.43 123.38 -86.43 123.38 -84.43 126.38 C-84.88 126.8 -85.32 127.21 -85.78 127.64 C-104.32 144.82 -104.32 144.82 -121.43 163.38 C-122.7 164.81 -122.7 164.81 -123.99 166.27 C-167.65 215.87 -199.36 276.2 -224.09 337.1 C-224.94 339.19 -225.82 341.26 -226.72 343.32 C-227.1 344.2 -227.48 345.07 -227.86 345.97 C-228.19 346.71 -228.52 347.45 -228.86 348.21 C-229.58 350.94 -229.23 352.69 -228.43 355.38 C-226.84 357.38 -226.84 357.38 -224.87 359.07 C-223.69 360.14 -222.53 361.23 -221.43 362.38 C-221.43 363.04 -221.43 363.7 -221.43 364.38 C-220.11 365.04 -218.79 365.7 -217.43 366.38 C-245.69 364.7 -271.8 360.88 -292.43 339.38 C-309.88 318.78 -314.35 290.01 -312.23 263.89 C-309.85 242.12 -302.36 221.15 -293.37 201.32 C-284.05 180.76 -279.85 159.85 -278.28 137.44 C-275.49 98.62 -266.17 58.47 -241.43 27.38 C-240.72 26.47 -240.01 25.56 -239.28 24.62 C-213.7 -7.56 -174.81 -26.88 -134.43 -32.62 C-133.48 -32.76 -133.48 -32.76 -132.51 -32.9 C-89.33 -38.53 -33.87 -28.81 0 0 Z " fill="#F44156" transform="translate(633.4296875,381.62158203125)"/>
<path d="M0 0 C17.17 12.71 28.95 30.02 38.79 48.66 C39.32 49.65 39.32 49.65 39.87 50.67 C40.9 52.57 41.91 54.49 42.91 56.41 C43.49 57.52 44.07 58.63 44.67 59.77 C45.79 62.66 45.79 62.66 45.66 64.93 C44.79 66.66 44.79 66.66 41.79 68.66 C41.79 69.98 41.79 71.3 41.79 72.66 C41.79 73.32 41.79 73.98 41.79 74.66 C42.87 74.31 43.94 73.95 45.05 73.59 C56.58 69.97 67.01 68.92 79.04 69.16 C80.76 69.18 82.48 69.2 84.21 69.22 C129.59 69.89 129.59 69.89 142.27 82.88 C147.98 89.6 148.38 94.24 148.1 103.09 C147.71 107.56 146.88 110.73 144.79 114.66 C144.3 115.66 143.81 116.65 143.31 117.68 C139.54 125.08 135.26 131.44 129.79 137.66 C128.95 138.62 128.12 139.58 127.26 140.56 C117.95 151.04 107.85 160.15 96.5 168.38 C92.37 171.86 90.96 174.07 90.37 179.48 C90.56 184.1 92.28 187.55 94.48 191.54 C94.84 192.24 95.21 192.94 95.59 193.67 C97.1 196.56 98.66 199.43 100.22 202.29 C103.04 207.6 105.07 213.04 106.98 218.73 C107.23 219.47 107.48 220.22 107.73 220.98 C110.71 230.12 112.15 238.47 112.16 248.1 C112.19 249.07 112.21 250.05 112.24 251.05 C112.28 261.53 109.08 269.23 101.87 276.82 C94.48 283.37 84.18 283.17 74.8 282.79 C40.72 280.71 3.34 264.33 -23.77 243.99 C-26.76 242.37 -28.86 242.41 -32.21 242.66 C-30.92 247.04 -28.74 249.35 -25.45 252.33 C-24.21 253.66 -24.21 253.66 -24.21 255.66 C-23.31 256.07 -23.31 256.07 -22.4 256.48 C-20.24 257.65 -18.85 258.86 -17.21 260.66 C-18.28 263.86 -18.72 264.34 -21.28 266.27 C-21.92 266.75 -22.56 267.24 -23.22 267.74 C-23.92 268.25 -24.62 268.76 -25.34 269.29 C-26.42 270.09 -26.42 270.09 -27.52 270.9 C-46.1 284.46 -67.51 297.97 -91.32 295.97 C-95.9 295.23 -98.99 292.84 -102.21 289.66 C-103.03 288.9 -103.03 288.9 -103.87 288.13 C-108.56 283.26 -111.85 276.95 -114.21 270.66 C-113.21 267.66 -113.21 267.66 -111.47 266.64 C-110.41 266.19 -110.41 266.19 -109.34 265.73 C-105.2 263.79 -103.05 261.98 -101.46 257.6 C-99.49 254.55 -96.5 253.96 -93.21 252.66 C-90.96 250.84 -90.96 250.84 -90.98 248.2 C-90.99 247.24 -91.01 246.28 -91.02 245.29 C-91.03 244.33 -91.04 243.38 -91.04 242.39 C-91.11 239.72 -91.11 239.72 -91.84 237.48 C-91.96 236.88 -92.09 236.28 -92.21 235.66 C-91.25 234.33 -91.25 234.33 -90.27 232.98 C-87.62 228.71 -87.35 225.57 -88.21 220.66 C-90.6 215.7 -93.15 213.73 -98.21 211.66 C-98.15 210.96 -98.09 210.26 -98.04 209.54 C-97.75 203.45 -98.11 199.28 -101.7 194.26 C-103.89 191.95 -106.26 190.76 -109.21 189.66 C-104.88 183.35 -100.86 181.47 -93.72 178.96 C-77.91 173.12 -65.17 162.49 -57.21 147.66 C-56.22 145.99 -55.22 144.33 -54.21 142.66 C-49.73 142.58 -47.36 142.62 -43.97 145.7 C-42.57 147.32 -41.2 148.96 -39.88 150.63 C-38.37 152.76 -38.37 152.76 -36.21 153.66 C-36.21 154.32 -36.21 154.98 -36.21 155.66 C-35.55 155.66 -34.89 155.66 -34.21 155.66 C-33.5 149.27 -34.75 145.29 -38.21 139.86 C-41.08 136.71 -44.09 135.68 -48.14 134.58 C-50.21 133.66 -50.21 133.66 -51.02 132 C-51.28 128.88 -51.14 125.85 -51.02 122.73 C-50.83 110.3 -54.88 98.38 -63.49 89.25 C-64.29 88.44 -65.08 87.62 -65.9 86.79 C-70.69 81.59 -72.93 76.78 -73.21 69.66 C-72.55 65.35 -70.94 61.65 -69.21 57.66 C-68.55 56.03 -67.9 54.4 -67.25 52.77 C-59.22 33.02 -46.82 6.3 -26.15 -2.9 C-17.28 -5.91 -8.05 -4.87 0 0 Z " fill="#F4CA36" transform="translate(811.2109375,531.3359375)"/>
<path d="M0 0 C0.55 0.39 1.1 0.78 1.67 1.19 C1.67 1.85 1.67 2.51 1.67 3.19 C2.66 3.52 3.65 3.85 4.67 4.19 C1.7 5.84 -1.27 7.49 -4.33 9.19 C-4.33 10.18 -4.33 11.17 -4.33 12.19 C-0.86 11.73 2.35 11.3 5.67 10.19 C7.69 9.95 7.69 9.95 9.92 9.88 C10.65 9.84 11.38 9.8 12.12 9.76 C20.31 11.13 25.93 17.94 31.48 23.56 C32.37 24.46 33.26 25.35 34.18 26.28 C40.86 33.13 46.65 40.03 51.67 48.19 C52.09 48.86 52.51 49.54 52.94 50.23 C55.58 54.52 58.15 58.84 60.67 63.19 C58.52 65.34 57.1 65.88 54.3 66.94 C49.83 68.88 47.9 70.74 45.67 75.19 C45.5 75.84 45.33 76.49 45.15 77.16 C43.69 82.59 43.69 82.59 40.94 84.21 C38.71 84.9 36.52 85.38 34.23 85.81 C32.6 86.19 30.97 86.58 29.34 86.98 C28.54 87.18 27.74 87.37 26.92 87.57 C18.07 90 10.5 95.22 3.67 101.19 C3 101.75 2.32 102.31 1.62 102.88 C-6.9 110.53 -12.74 121.88 -14.33 133.19 C-11.1 135.34 -10.04 135.39 -6.33 135.19 C-6.12 134.4 -5.92 133.62 -5.7 132.81 C-0.43 118.92 9.42 108.98 22.69 102.7 C35.69 96.91 50.9 94.32 64.67 99.19 C75.46 103.38 82.38 110.04 87.57 120.41 C91.5 129.39 91.09 139.82 88.17 149.06 C82.43 162.34 71.29 173.75 57.9 179.34 C44.62 184.32 29.53 185.73 16.21 180.06 C13.18 179.02 10.86 178.83 7.67 179.19 C5.3 182.14 5.3 182.14 5.67 186.19 C13.23 190.11 20.52 193.65 28.67 196.19 C29.66 196.85 30.65 197.51 31.67 198.19 C30.03 199.59 28.39 200.99 26.73 202.38 C25.82 203.15 24.9 203.93 23.96 204.73 C16.41 210.6 8.84 213.28 -0.45 215.25 C-2.16 215.63 -2.16 215.63 -3.9 216.01 C-35.75 222.91 -66.31 225.72 -98.84 222.9 C-116.24 221.17 -116.24 221.17 -132.89 225.44 C-139.73 227.54 -147.78 222.89 -153.83 219.94 C-154.66 219.54 -155.49 219.14 -156.35 218.73 C-161.37 216.28 -166.09 213.69 -170.54 210.28 C-172.8 208.9 -174.7 208.49 -177.33 208.19 C-180.47 208.92 -180.47 208.92 -182.08 211.48 C-184.74 214.69 -187.72 216.48 -191.33 218.44 C-191.94 218.79 -192.56 219.14 -193.2 219.5 C-201.26 224 -210.28 224.73 -219.29 222.43 C-223.89 220.67 -227.7 218.58 -231.33 215.19 C-230.16 208.91 -228.35 203.37 -225.7 197.57 C-225.36 196.8 -225.01 196.02 -224.65 195.22 C-223.55 192.77 -222.44 190.32 -221.33 187.88 C-220.58 186.22 -219.84 184.56 -219.09 182.9 C-213.37 170.15 -213.37 170.15 -211.33 166.19 C-207.42 167.55 -204.71 169.34 -201.52 171.94 C-189.32 181 -174.59 184.28 -159.64 184.5 C-158.83 184.52 -158.02 184.54 -157.19 184.55 C-150.83 184.55 -146.08 183.42 -141.02 179.31 C-137.13 174.42 -137.2 170.7 -137.84 164.69 C-138.23 162.16 -138.23 162.16 -139.41 159.9 C-140.89 155.52 -139.99 151.11 -139.43 146.6 C-138.89 140.84 -140.01 137.95 -143.33 133.19 C-146.46 130.25 -149.29 129.15 -153.58 129.23 C-155.12 129.33 -156.67 129.43 -158.21 129.54 C-160.33 129.19 -160.33 129.19 -161.83 127.51 C-164.65 123.13 -165.95 118.1 -167.58 113.19 C-167.95 112.09 -168.33 111 -168.72 109.88 C-169.07 108.82 -169.42 107.77 -169.78 106.69 C-170.1 105.73 -170.42 104.77 -170.75 103.78 C-171.34 101.12 -171.24 99.72 -170.33 97.19 C-169.75 97.35 -169.16 97.51 -168.57 97.67 C-150.31 101.87 -132.16 94.63 -116.33 86.19 C-114.91 85.29 -114.91 85.29 -113.46 84.38 C-112.76 83.99 -112.05 83.59 -111.33 83.19 C-110.67 83.52 -110.01 83.85 -109.33 84.19 C-109.82 90.13 -109.82 90.13 -110.33 96.19 C-108.35 96.68 -108.35 96.68 -106.33 97.19 C-106.19 96.63 -106.06 96.07 -105.92 95.49 C-105.16 92.68 -104.27 89.94 -103.33 87.19 C-102.77 85.56 -102.77 85.56 -102.2 83.9 C-97.67 72.98 -89.88 67.37 -80.39 60.68 C-78.5 59.31 -76.73 57.87 -74.96 56.35 C-71.62 53.61 -69.32 53.06 -65.14 53.12 C-63.88 53.15 -62.62 53.17 -61.33 53.19 C-62.32 50.22 -62.32 50.22 -63.33 47.19 C-56.08 40.93 -48.82 34.71 -41.38 28.68 C-38.96 26.7 -36.55 24.72 -34.15 22.73 C-33.41 22.12 -32.66 21.5 -31.9 20.87 C-30.43 19.66 -28.97 18.45 -27.52 17.23 C-21.09 11.92 -14.51 6.83 -7.58 2.19 C-6.68 1.57 -5.77 0.95 -4.84 0.31 C-2.33 -0.81 -2.33 -0.81 0 0 Z " fill="#F8C08E" transform="translate(655.328125,518.8125)"/>
<path d="M0 0 C17.17 12.71 28.95 30.02 38.79 48.66 C39.32 49.65 39.32 49.65 39.87 50.67 C40.9 52.57 41.91 54.49 42.91 56.41 C43.49 57.52 44.07 58.63 44.67 59.77 C45.79 62.66 45.79 62.66 45.66 64.93 C44.79 66.66 44.79 66.66 41.79 68.66 C41.79 69.98 41.79 71.3 41.79 72.66 C41.79 73.32 41.79 73.98 41.79 74.66 C42.87 74.31 43.94 73.95 45.05 73.59 C56.58 69.97 67.01 68.92 79.04 69.16 C80.76 69.18 82.48 69.2 84.21 69.22 C129.59 69.89 129.59 69.89 142.27 82.88 C147.98 89.6 148.38 94.24 148.1 103.09 C147.71 107.56 146.88 110.73 144.79 114.66 C144.3 115.66 143.81 116.65 143.31 117.68 C139.54 125.08 135.26 131.44 129.79 137.66 C128.95 138.62 128.12 139.58 127.26 140.56 C117.95 151.04 107.85 160.15 96.5 168.38 C92.37 171.86 90.96 174.07 90.37 179.48 C90.56 184.1 92.28 187.55 94.48 191.54 C94.84 192.24 95.21 192.94 95.59 193.67 C97.1 196.56 98.66 199.43 100.22 202.29 C103.04 207.6 105.07 213.04 106.98 218.73 C107.23 219.47 107.48 220.22 107.73 220.98 C110.71 230.12 112.15 238.47 112.16 248.1 C112.19 249.07 112.21 250.05 112.24 251.05 C112.28 261.53 109.08 269.23 101.87 276.82 C94.48 283.37 84.18 283.17 74.8 282.79 C40.72 280.71 3.34 264.33 -23.77 243.99 C-26.76 242.37 -28.86 242.41 -32.21 242.66 C-30.92 247.04 -28.74 249.35 -25.45 252.33 C-24.21 253.66 -24.21 253.66 -24.21 255.66 C-23.31 256.07 -23.31 256.07 -22.4 256.48 C-20.24 257.65 -18.85 258.86 -17.21 260.66 C-18.28 263.86 -18.72 264.34 -21.28 266.27 C-21.92 266.75 -22.56 267.24 -23.22 267.74 C-23.92 268.25 -24.62 268.76 -25.34 269.29 C-26.42 270.09 -26.42 270.09 -27.52 270.9 C-46.1 284.46 -67.51 297.97 -91.32 295.97 C-95.9 295.23 -98.99 292.84 -102.21 289.66 C-103.03 288.9 -103.03 288.9 -103.87 288.13 C-108.56 283.26 -111.85 276.95 -114.21 270.66 C-113.21 267.66 -113.21 267.66 -111.47 266.64 C-110.41 266.19 -110.41 266.19 -109.34 265.73 C-105.2 263.79 -103.05 261.98 -101.46 257.6 C-99.49 254.55 -96.5 253.96 -93.21 252.66 C-90.96 250.84 -90.96 250.84 -90.98 248.2 C-90.99 247.24 -91.01 246.28 -91.02 245.29 C-91.03 244.33 -91.04 243.38 -91.04 242.39 C-91.19 240 -91.53 237.95 -92.21 235.66 C-91.53 236.37 -90.85 237.07 -90.15 237.79 C-83.73 244.19 -78.96 248.94 -69.52 249.04 C-55.54 248.75 -46.21 240.03 -36.15 231.1 C-32.35 227.95 -32.35 227.95 -29.21 227.66 C-26.49 228.57 -26.49 228.57 -23.36 230.02 C-22.21 230.54 -21.06 231.06 -19.87 231.59 C-19.26 231.87 -18.65 232.15 -18.03 232.43 C-9.06 236.52 -0.1 240.42 9.48 242.85 C10.2 243.03 10.92 243.22 11.66 243.41 C27.44 247.11 47.48 248.53 62.16 240.91 C67.86 236.03 72.17 231.42 73.01 223.64 C74.04 204.26 68.35 189.11 58.98 172.45 C57.79 169.66 57.79 169.66 57.79 167.56 C59.27 164.75 61.35 163.29 63.85 161.35 C64.85 160.56 65.85 159.77 66.88 158.96 C67.84 158.2 68.8 157.44 69.79 156.66 C72.51 154.39 75.17 152.05 77.79 149.66 C78.47 149.05 79.15 148.44 79.85 147.8 C88.04 140.07 93.66 131.21 94.1 119.73 C93.94 113.06 92.07 107.04 87.46 102.04 C74.25 91.2 52.35 90.55 36.13 90.23 C35.23 90.2 34.32 90.17 33.39 90.14 C32.58 90.12 31.77 90.1 30.93 90.08 C28.27 89.56 27.45 88.77 25.79 86.66 C24.43 84.14 23.13 81.61 21.85 79.04 C18.53 72.57 14.86 66.49 10.66 60.54 C10.19 59.85 9.71 59.17 9.22 58.46 C2.9 49.69 -3.84 43.31 -14.21 39.66 C-20.47 38.67 -25.88 38.98 -31.21 42.66 C-45.02 54.4 -53.81 78.02 -56.21 95.66 C-59.75 94.48 -60.41 93.42 -62.59 90.48 C-64.62 87.74 -66.65 85.18 -69.02 82.73 C-72.05 78.49 -73.14 74.87 -73.21 69.66 C-72.45 65.42 -70.87 61.63 -69.21 57.66 C-68.75 56.5 -68.75 56.5 -68.27 55.32 C-60.08 34.82 -47.68 6.69 -26.15 -2.9 C-17.28 -5.91 -8.05 -4.87 0 0 Z " fill="#D3A915" transform="translate(811.2109375,531.3359375)"/>
<path d="M0 0 C7.66 6.35 14.96 15.01 17 25 C18.01 37.43 18.55 51.4 10.91 61.87 C5.37 68.23 -0.32 74.29 -9 75.38 C-13.81 74.77 -16.24 71.96 -19.18 68.26 C-19.93 67.22 -20.67 66.19 -21.44 65.12 C-29.21 54.68 -41.39 39.2 -54 35 C-54 34.34 -54 33.68 -54 33 C-48.08 30.97 -42.62 30.58 -36.38 30.56 C-34.87 30.56 -34.87 30.56 -33.34 30.55 C-24.4 30.69 -16.25 32.42 -7.66 34.81 C-3.12 36.06 1.31 36.59 6 37 C5.49 33.23 5 31.37 2 29 C-0.43 27.92 -2.81 26.96 -5.31 26.06 C-6.37 25.67 -6.37 25.67 -7.46 25.28 C-32.27 16.36 -53.27 15.9 -77.66 27.23 C-91.96 34.56 -104.39 44.91 -116.32 55.53 C-118.77 57.67 -121.28 59.71 -123.81 61.75 C-127.3 64.57 -130.68 67.48 -134 70.5 C-139.18 75.2 -144.55 79.61 -150 84 C-151.14 84.94 -152.29 85.87 -153.43 86.81 C-172.11 102.05 -192.68 117.81 -216 125 C-216.62 125.2 -217.25 125.4 -217.89 125.61 C-221.02 126.19 -224.07 126.09 -227.25 126.06 C-228.51 126.05 -229.78 126.04 -231.08 126.04 C-232.04 126.02 -233.01 126.01 -234 126 C-234.33 125.34 -234.66 124.68 -235 124 C-223.39 107.52 -211.28 91.56 -197.55 76.77 C-195.49 74.53 -193.48 72.26 -191.5 69.94 C-184.63 62.03 -177.04 54.69 -169 48 C-168.46 47.55 -167.93 47.1 -167.37 46.63 C-145.13 28.01 -121.32 12.19 -94 2 C-93.28 1.73 -92.55 1.45 -91.81 1.17 C-64.19 -9.11 -25.76 -19.22 0 0 Z " fill="#F44156" transform="translate(728,475)"/>
<path d="M0 0 C0.66 0.33 1.32 0.66 2 1 C2.64 3.77 3.18 6.51 3.69 9.31 C7.7 29.63 15.65 49.08 27.08 66.38 C28 68 28 68 28 70 C17.23 70.63 8.79 62.63 1 56 C0.28 55.41 -0.44 54.83 -1.18 54.23 C-2.83 52.87 -4.42 51.44 -6 50 C-6 49.34 -6 48.68 -6 48 C-6.99 48.5 -6.99 48.5 -8 49 C-1 70.46 6.62 89.2 27 101 C29.96 102.33 32.83 103.31 36 104 C37.16 104.27 37.16 104.27 38.35 104.55 C54.39 107.29 70.98 102.73 85.19 95.34 C88 94 88 94 91 94 C89.65 97.5 88.13 100.82 86.42 104.16 C75.77 125.06 66.04 146.3 57.12 168 C56.69 169.04 56.25 170.08 55.81 171.15 C55.42 172.11 55.03 173.07 54.63 174.06 C54.29 174.9 53.95 175.74 53.6 176.6 C52.89 179.45 53.15 181.21 54 184 C55.59 186 55.59 186 57.56 187.69 C58.74 188.76 59.9 189.85 61 191 C61 191.66 61 192.32 61 193 C62.98 193.99 62.98 193.99 65 195 C36.74 193.32 10.63 189.5 -10 168 C-27.45 147.4 -31.92 118.63 -29.8 92.51 C-27.32 69.86 -19.28 48.28 -9.9 27.67 C-6.73 20.59 -4.31 13.4 -2 6 C-1.34 4 -0.67 2 0 0 Z " fill="#C01F42" transform="translate(351,553)"/>
<path d="M0 0 C13.37 9.99 18.22 28.65 22.4 43.89 C23.18 46.62 24.07 49.31 25 52 C25.64 52.09 26.29 52.19 26.95 52.29 C61.99 57.55 61.99 57.55 71 66 C73.55 69.82 73.6 71.45 73 76 C71.38 79.02 69.27 81.46 67 84 C66.07 85.08 66.07 85.08 65.12 86.19 C56.78 95.28 45.43 101.54 34 106 C33.34 106 32.68 106 32 106 C32.19 106.54 32.37 107.09 32.56 107.65 C43.56 140.23 43.56 140.23 38 155 C37.34 155 36.68 155 36 155 C36 154.34 36 153.68 36 153 C35.4 152.76 34.81 152.51 34.19 152.26 C31.62 150.78 30.6 149.32 28.94 146.88 C18.35 132.87 0.8 126.66 -16 124 C-20.99 123.41 -25.98 123.15 -31 123 C-33.24 116.79 -34.57 110.4 -35.97 103.96 C-37.35 97.93 -39.26 92.55 -42 87 C-42.54 85.9 -43.08 84.8 -43.64 83.66 C-47.54 76.29 -51.89 69.59 -57 63 C-58.04 61.65 -58.04 61.65 -59.11 60.27 C-62.53 55.91 -66.03 51.88 -70 48 C-68 47.68 -66 47.37 -64 47.06 C-62.09 46.76 -62.09 46.76 -60.15 46.45 C-57.3 46.07 -54.65 46 -51.79 46.17 C-47.52 46.37 -44.12 46.26 -40 45 C-36.66 41.07 -34.92 36.85 -32.96 32.12 C-31.36 28.58 -29.24 25.4 -27.06 22.19 C-26.64 21.56 -26.22 20.94 -25.79 20.3 C-10.9 -1.32 -10.9 -1.32 0 0 Z " fill="#F5CA36" transform="translate(720,323)"/>
<path d="M0 0 C0.55 0.39 1.1 0.78 1.67 1.19 C1.67 1.85 1.67 2.51 1.67 3.19 C2.66 3.52 3.65 3.85 4.67 4.19 C1.7 5.84 -1.27 7.49 -4.33 9.19 C-4.33 10.18 -4.33 11.17 -4.33 12.19 C-0.86 11.73 2.35 11.3 5.67 10.19 C7.69 9.95 7.69 9.95 9.92 9.88 C10.65 9.84 11.38 9.8 12.12 9.76 C20.31 11.13 25.93 17.94 31.48 23.56 C32.37 24.45 33.25 25.34 34.16 26.25 C51.67 44.16 51.67 44.16 51.67 50.19 C50.87 50.12 50.07 50.04 49.25 49.97 C23.44 47.79 2.42 53.11 -20.33 65.19 C-21.33 65.7 -22.33 66.22 -23.36 66.75 C-43.14 77.18 -61.3 91.82 -77.75 106.85 C-79.84 108.75 -81.96 110.61 -84.09 112.46 C-88.46 116.27 -92.68 120.21 -96.89 124.19 C-97.96 125.2 -97.96 125.2 -99.06 126.23 C-107.71 134.33 -107.71 134.33 -115.7 143.06 C-118.99 146.88 -122.52 150.4 -126.11 153.93 C-129.34 157.21 -132.35 160.67 -135.33 164.19 C-135.66 163.53 -135.99 162.87 -136.33 162.19 C-136.99 162.19 -137.65 162.19 -138.33 162.19 C-141.04 157.03 -140.12 152.15 -139.43 146.6 C-138.89 140.84 -140.01 137.95 -143.33 133.19 C-146.46 130.25 -149.29 129.15 -153.58 129.23 C-155.12 129.33 -156.67 129.43 -158.21 129.54 C-160.33 129.19 -160.33 129.19 -161.83 127.51 C-164.65 123.13 -165.95 118.1 -167.58 113.19 C-167.95 112.09 -168.33 111 -168.72 109.88 C-169.07 108.82 -169.42 107.77 -169.78 106.69 C-170.1 105.73 -170.42 104.77 -170.75 103.78 C-171.34 101.12 -171.24 99.72 -170.33 97.19 C-169.75 97.35 -169.16 97.51 -168.57 97.67 C-150.31 101.87 -132.16 94.63 -116.33 86.19 C-115.38 85.59 -114.44 84.99 -113.46 84.38 C-112.76 83.99 -112.05 83.59 -111.33 83.19 C-110.34 83.68 -110.34 83.68 -109.33 84.19 C-109.82 90.13 -109.82 90.13 -110.33 96.19 C-109.01 96.52 -107.69 96.85 -106.33 97.19 C-106.19 96.63 -106.06 96.07 -105.92 95.49 C-105.16 92.68 -104.27 89.94 -103.33 87.19 C-102.77 85.56 -102.77 85.56 -102.2 83.9 C-97.67 72.98 -89.88 67.37 -80.39 60.68 C-78.5 59.31 -76.73 57.87 -74.96 56.35 C-71.62 53.61 -69.32 53.06 -65.14 53.12 C-63.88 53.15 -62.62 53.17 -61.33 53.19 C-62.32 50.22 -62.32 50.22 -63.33 47.19 C-56.08 40.93 -48.82 34.71 -41.38 28.68 C-38.96 26.7 -36.55 24.72 -34.15 22.73 C-33.41 22.12 -32.66 21.5 -31.9 20.87 C-30.43 19.66 -28.97 18.45 -27.52 17.23 C-21.09 11.92 -14.51 6.83 -7.58 2.19 C-6.68 1.57 -5.77 0.95 -4.84 0.31 C-2.33 -0.81 -2.33 -0.81 0 0 Z " fill="#EA997B" transform="translate(655.328125,518.8125)"/>
<path d="M0 0 C10.61 8.54 16.76 18.59 19 32 C19.67 39.01 18.62 46.45 16 53 C12.25 56.03 7.66 57.26 3.12 58.75 C-18.41 66.14 -37.68 77.65 -56.2 90.74 C-60.14 93.5 -61.9 94.31 -66.77 93.54 C-70.79 92.57 -74.34 90.89 -78 89 C-79.19 88.4 -79.19 88.4 -80.41 87.79 C-89.43 82.85 -98.77 75.17 -102.36 65.23 C-102.57 64.5 -102.78 63.76 -103 63 C-103.23 62.22 -103.46 61.44 -103.7 60.64 C-106.98 47.44 -103.34 33.74 -96.54 22.22 C-93.45 17.76 -89.79 13.87 -86 10 C-85.11 9.06 -85.11 9.06 -84.2 8.09 C-62.6 -12.94 -24.86 -15.82 0 0 Z " fill="#F4EBD9" transform="translate(626,401)"/>
<path d="M0 0 C1.92 0.4 1.92 0.4 3.88 0.81 C4.81 0.99 5.75 1.17 6.71 1.36 C8.97 1.8 11.21 2.28 13.44 2.8 C37.16 7.91 63.83 6.26 87.42 1.28 C88.7 1.14 88.7 1.14 90 1 C90.99 1.99 90.99 1.99 92 3 C87.97 11.86 84.12 19.47 77.29 26.54 C63.41 41.46 53.85 62.55 53.75 83.06 C53.81 84.71 53.89 86.36 54 88 C52 89 52 89 48.12 89.31 C45.37 89.66 44.15 89.9 41.81 91.5 C40.23 93.68 39.05 95.75 37.81 98.12 C34.79 103.74 30.93 108.92 26 113 C22.02 114.13 20.65 114.31 16.88 112.5 C9.88 105.87 9.46 91.41 8.49 82.34 C8 79.03 7.15 76.13 6 73 C5.44 72.93 4.87 72.86 4.29 72.79 C1.69 72.46 -0.9 72.1 -3.5 71.75 C-4.39 71.64 -5.27 71.53 -6.19 71.42 C-12.9 70.48 -19.08 68.92 -24 64 C-24.75 58.62 -23.65 55.43 -20.68 51.11 C-16.12 45.38 -10.95 40.61 -5 36.38 C-1.9 34.03 -1.12 33.38 0.12 29.56 C0.02 26.52 -0.28 23.6 -0.74 20.59 C-1.11 16.94 -1.12 13.29 -1.12 9.62 C-1.13 8.91 -1.13 8.2 -1.14 7.46 C-1.12 2.25 -1.12 2.25 0 0 Z " fill="#F4CA36" transform="translate(368,760)"/>
<path d="M0 0 C1.79 1.29 1.79 1.29 3.19 3.06 C3.66 3.63 4.12 4.2 4.61 4.79 C8.64 11.19 9.46 16.18 9.31 23.62 C9.32 24.46 9.32 25.29 9.32 26.15 C9.28 30.58 8.94 33.94 7 38 C6.86 39.03 6.71 40.06 6.56 41.12 C5.93 44.36 5.52 44.99 3 47 C-24.67 59.04 -65.62 56.38 -95 52 C-96.36 51.8 -96.36 51.8 -97.75 51.59 C-117.43 48.57 -138.79 44.13 -153 29 C-154.54 25.93 -154.23 23.4 -154 20 C-152.63 16.04 -151.69 14.43 -148.12 12.19 C-137.4 8.11 -125.31 10.03 -114.12 11 C-78.23 13.82 -43.76 9.27 -8.92 0.55 C-5.85 -0.03 -3.11 -0.18 0 0 Z " fill="#F54257" transform="translate(675,745)"/>
<path d="M0 0 C2.4 2.33 4.7 4.64 6.84 7.21 C19.94 22.72 38.61 33.19 58.89 35.43 C61.25 35.59 63.61 35.73 65.98 35.82 C68.75 35.99 71.3 36.38 74 37 C73.45 37.26 72.89 37.52 72.32 37.78 C51.88 48.52 39.66 68.18 32.68 89.58 C31.53 93.69 30.91 97.85 30.31 102.06 C30.18 102.93 30.05 103.79 29.92 104.69 C29.61 106.79 29.3 108.89 29 111 C9.1 106.18 -10.23 96.96 -22 79.56 C-28.53 68.27 -30.99 56.86 -28.38 43.91 C-23.31 27.08 -12.74 11.91 0 0 Z " fill="#484AA2" transform="translate(467,787)"/>
<path d="M0 0 C1.31 1.78 1.31 1.78 2.44 4.08 C2.86 4.91 3.28 5.74 3.71 6.6 C4.14 7.47 4.56 8.35 5 9.25 C8.12 15.78 8.12 15.78 12.28 21.64 C15.9 26.61 14.67 34.07 14 40 C11.33 52.91 4.07 62.75 -5 72 C-5.79 72.83 -5.79 72.83 -6.61 73.68 C-19.06 85.53 -41.03 93.13 -58 94.19 C-60 94 -60 94 -61 93 C-61.14 90.86 -61.23 88.71 -61.31 86.56 C-62.56 63.39 -70.92 38.63 -87.83 22.23 C-96.6 14.97 -107.94 12.34 -119 11 C-119 10.34 -119 9.68 -119 9 C-111.53 5.41 -105.34 2.97 -97 4 C-95.95 4.12 -94.9 4.25 -93.81 4.38 C-89.99 6.58 -88.31 9.5 -85.9 13.14 C-78.04 24.94 -68.14 35.33 -54 39 C-48.36 39.9 -43.85 39.13 -38.86 36.35 C-35.13 33.64 -32.06 30.12 -30 26 C-29.69 18.96 -29.68 11.93 -31 5 C-30.46 4.88 -29.92 4.76 -29.36 4.64 C-25.34 3.75 -21.33 2.85 -17.32 1.89 C-15.78 1.53 -14.23 1.17 -12.69 0.81 C-11.9 0.62 -11.12 0.43 -10.31 0.24 C-9.55 0.06 -8.79 -0.11 -8.01 -0.29 C-7.34 -0.45 -6.66 -0.61 -5.96 -0.78 C-3.61 -1.04 -2.19 -0.92 0 0 Z " fill="#7C5BA9" transform="translate(683,808)"/>
<path d="M0 0 C11.44 9.01 17.01 25.14 19 39 C19.13 39.86 19.26 40.72 19.39 41.6 C21.92 62.03 20.14 87.14 7 104 C2.87 108.21 -0.58 111.7 -6.56 112.44 C-12.9 112.33 -17.28 108.6 -21.69 104.38 C-32.37 91.83 -34.4 73.21 -34.38 57.5 C-34.37 56.84 -34.37 56.18 -34.37 55.5 C-34.32 37.44 -31.64 17.92 -19 4 C-13.38 -1.34 -7.29 -3.7 0 0 Z " fill="#F5ECDA" transform="translate(585,840)"/>
<path d="M0 0 C3.67 0.6 5.72 2.14 8.56 4.5 C9.44 5.22 10.32 5.95 11.23 6.69 C12.14 7.45 13.06 8.22 14 9 C15.81 10.48 17.62 11.96 19.44 13.44 C21.29 14.96 23.15 16.48 25 18 C26.83 19.5 28.67 21 30.5 22.5 C31.4 23.23 32.29 23.97 33.21 24.72 C35.16 26.32 37.11 27.91 39.07 29.5 C40.06 30.3 41.04 31.11 42.06 31.94 C42.96 32.67 43.86 33.4 44.79 34.15 C47 36 47 36 49 38 C49 38.99 49 39.98 49 41 C47.62 42.18 46.23 43.35 44.79 44.47 C40.59 48.05 37.05 52.42 34 57 C23.93 55.13 14.95 42.04 8 35 C6.07 37.5 4.35 39.99 2.81 42.75 C2.21 43.82 1.62 44.89 1 46 C-3.64 45.48 -8.2 44.81 -12.79 43.96 C-13.77 43.78 -14.75 43.6 -15.76 43.42 C-16.87 43.21 -16.87 43.21 -18 43 C-17.91 44.01 -17.82 45.02 -17.72 46.06 C-17.39 49.81 -17.05 53.56 -16.72 57.31 C-16.57 58.93 -16.43 60.55 -16.28 62.17 C-16.07 64.51 -15.86 66.84 -15.66 69.17 C-15.59 69.89 -15.53 70.62 -15.46 71.36 C-15.17 74.6 -15 77.75 -15 81 C-19.82 81.02 -24.65 81.04 -29.47 81.05 C-31.11 81.06 -32.76 81.07 -34.4 81.08 C-36.75 81.09 -39.11 81.09 -41.46 81.1 C-42.2 81.1 -42.94 81.11 -43.7 81.11 C-45.47 81.11 -47.23 81.06 -49 81 C-49.33 80.67 -49.66 80.34 -50 80 C-49.86 72.31 -48.06 64.7 -46.5 57.21 C-46.25 56.03 -46.01 54.84 -45.76 53.62 C-44.99 49.87 -44.21 46.12 -43.44 42.38 C-42.91 39.82 -42.39 37.26 -41.86 34.71 C-40.58 28.47 -39.29 22.23 -38 16 C-33.64 16.52 -29.35 17.05 -25.06 17.97 C-24.23 18.15 -23.4 18.33 -22.54 18.51 C-21.7 18.69 -20.86 18.87 -20 19.06 C-19.13 19.25 -18.26 19.44 -17.36 19.63 C-15.24 20.08 -13.12 20.54 -11 21 C-9.35 17.88 -7.71 14.75 -6.06 11.62 C-5.59 10.74 -5.13 9.85 -4.64 8.93 C-4.19 8.08 -3.75 7.23 -3.29 6.35 C-2.87 5.57 -2.46 4.78 -2.03 3.97 C-1.34 2.65 -0.66 1.33 0 0 Z " fill="#F54257" transform="translate(594,398)"/>
<path d="M0 0 C-0.68 0.45 -1.36 0.91 -2.06 1.38 C-15.06 12.99 -20.16 32.18 -22 49 C-23.29 72.87 -21.12 96.55 -6 116 C-5 117.33 -4 118.67 -3 120 C-16.18 120.86 -27.6 113.98 -37.38 105.69 C-47.58 95.97 -53.45 81.25 -54.2 67.21 C-54.37 58.37 -53.88 50.46 -51 42 C-50.61 40.81 -50.22 39.62 -49.82 38.39 C-44.62 23.53 -35.06 11.02 -20.94 3.69 C-13.4 0.15 -8.31 -1.46 0 0 Z " fill="#68C1C8" transform="translate(566,835)"/>
<path d="M0 0 C47.14 -1.3 47.14 -1.3 62.69 11.38 C68.49 17.32 70.23 21.09 70.44 29.44 C70.25 35.33 69.75 39.81 67 45 C66.51 46 66.03 46.99 65.52 48.02 C61.76 55.41 57.47 61.77 52 68 C51.16 68.96 50.33 69.91 49.47 70.9 C40.16 81.38 30.06 90.49 18.71 98.71 C14.58 102.19 13.17 104.41 12.58 109.82 C12.77 114.44 14.49 117.88 16.69 121.88 C17.05 122.58 17.42 123.28 17.8 124 C19.31 126.9 20.87 129.76 22.43 132.62 C25.25 137.94 27.28 143.38 29.19 149.06 C29.44 149.81 29.69 150.55 29.95 151.32 C32.92 160.45 34.36 168.81 34.38 178.44 C34.4 179.41 34.42 180.38 34.45 181.38 C34.49 191.87 31.29 199.57 24.08 207.15 C16.7 213.71 6.39 213.5 -2.98 213.12 C-16.49 212.3 -41.41 209.59 -51 200 C-46.83 200 -42.98 200.76 -38.94 201.75 C-30.97 203.66 -23.32 204.32 -15.12 204.38 C-13.68 204.4 -13.68 204.4 -12.21 204.42 C-3.1 204.36 4.38 202.56 11.14 196.23 C21.05 184.33 20.94 170.67 20 156 C19.29 150.49 17.77 145.26 16 140 C15.67 139 15.67 139 15.33 137.98 C12.46 129.39 8.95 121.57 4.32 113.77 C2.9 110.79 2.36 109.24 3 106 C4.9 104.02 4.9 104.02 7.38 102.25 C8.59 101.36 8.59 101.36 9.84 100.45 C12 99 12 99 14 98 C14.54 97.3 15.07 96.6 15.62 95.88 C17.61 93.48 19.47 91.64 21.81 89.62 C33.06 79.96 41.71 68.95 49 56 C49.46 55.2 49.92 54.4 50.39 53.58 C54.54 45.09 54.63 33.85 52.12 24.83 C48.88 17.75 43.69 12.83 36.43 9.99 C34.73 9.41 33.02 8.85 31.31 8.31 C30.41 8.02 29.51 7.72 28.58 7.42 C19.21 4.51 9.72 3.1 0 2 C0 1.34 0 0.68 0 0 Z " fill="#F4EBD9" transform="translate(889,601)"/>
<path d="M0 0 C0.99 0.66 1.98 1.32 3 2 C3.39 4.56 3.39 4.56 3.4 7.8 C3.4 9 3.41 10.19 3.42 11.42 C3.4 12.71 3.39 13.99 3.38 15.31 C3.37 16.62 3.36 17.93 3.35 19.28 C3.02 40.62 1.09 63.25 -14.88 79.12 C-19.07 81.64 -22.23 82.14 -27 81 C-37.95 75.25 -42.25 65.34 -45.95 54.13 C-49.25 42.82 -49.13 31.67 -49 20 C-48.02 19.78 -47.04 19.56 -46.03 19.34 C-29.21 15.45 -14.86 8.61 0 0 Z " fill="#67C1C8" transform="translate(779,824)"/>
<path d="M0 0 C13.37 9.99 18.22 28.65 22.4 43.89 C23.18 46.62 24.07 49.31 25 52 C25.64 52.09 26.29 52.19 26.95 52.29 C61.99 57.55 61.99 57.55 71 66 C73.55 69.82 73.6 71.45 73 76 C71.38 79.02 69.27 81.46 67 84 C66.07 85.08 66.07 85.08 65.12 86.19 C56.78 95.28 45.43 101.54 34 106 C33.34 106 32.68 106 32 106 C32.19 106.54 32.37 107.09 32.56 107.65 C43.56 140.23 43.56 140.23 38 155 C37.34 155 36.68 155 36 155 C36 154.34 36 153.68 36 153 C35.4 152.75 34.8 152.5 34.18 152.25 C31.66 150.81 30.7 149.51 29.19 147.06 C28.75 146.37 28.31 145.68 27.86 144.97 C27 143 27 143 28 140 C28.23 136.77 28.19 133.54 28.19 130.31 C28.2 129.44 28.21 128.57 28.22 127.67 C28.24 122.08 27.5 117.38 26 112 C26 109.19 26 109.19 27 107 C31.86 104 31.86 104 35 104 C35.5 102.51 35.5 102.51 36 101 C37.6 99.64 37.6 99.64 39.62 98.25 C44.2 94.96 49.43 91.14 52 86 C52.59 80.35 52.85 75.58 50.12 70.5 C43.56 64.31 33.67 63.1 25.16 61.39 C21.57 60.66 19.08 60.05 16 58 C15.09 55.49 14.33 53.06 13.62 50.5 C10.85 41.07 6.95 28.21 -1.97 22.8 C-5.14 21.55 -7.62 21.65 -11 22 C-20.5 26.95 -26.02 35.65 -31.67 44.38 C-32.07 44.99 -32.47 45.59 -32.88 46.22 C-34.17 48.22 -34.17 48.22 -35.67 51.35 C-39.19 55.35 -42.93 55.31 -48.06 55.81 C-49.87 56.03 -51.67 56.24 -53.47 56.46 C-54.27 56.54 -55.07 56.62 -55.89 56.71 C-58.18 56.96 -58.18 56.96 -61 58 C-61.4 57.53 -61.8 57.06 -62.21 56.57 C-62.74 55.95 -63.27 55.33 -63.81 54.69 C-64.33 54.07 -64.86 53.46 -65.39 52.82 C-66.87 51.15 -68.4 49.56 -70 48 C-68 47.68 -66 47.37 -64 47.06 C-62.09 46.76 -62.09 46.76 -60.15 46.45 C-57.3 46.07 -54.65 46 -51.79 46.17 C-47.52 46.37 -44.12 46.26 -40 45 C-36.66 41.07 -34.92 36.85 -32.96 32.12 C-31.36 28.58 -29.24 25.4 -27.06 22.19 C-26.64 21.56 -26.22 20.94 -25.79 20.3 C-10.9 -1.32 -10.9 -1.32 0 0 Z " fill="#F5EBD9" transform="translate(720,323)"/>
<path d="M0 0 C1.58 0.28 3.17 0.58 4.75 0.88 C6.07 1.12 6.07 1.12 7.42 1.37 C9.87 1.97 11.81 2.78 14 4 C13.82 4.8 13.82 4.8 13.63 5.62 C12.75 9.76 11.98 13.84 11.6 18.05 C11.53 18.75 11.46 19.46 11.39 20.18 C11.26 21.58 11.14 22.98 11.05 24.38 C10.54 29.55 8.92 31.71 5 35 C0.06 39.49 -3.64 43.27 -5 50 C-5 53.42 -4.4 54.53 -2.19 57.12 C1.85 59.5 5.8 60.33 10.36 61.29 C13 62 13 62 15 64 C15.85 67.45 16.47 70.93 17.12 74.42 C18.2 78.82 19.63 82.54 22.75 85.88 C26.08 87.54 28.33 87.51 32 87 C36.82 83.26 40.33 77.85 44 73 C46.31 73.33 48.62 73.66 51 74 C51 74.66 51 75.32 51 76 C51.66 76 52.32 76 53 76 C53.5 81.94 53.5 81.94 54 88 C52 89 52 89 48.12 89.31 C45.37 89.66 44.15 89.9 41.81 91.5 C40.23 93.68 39.05 95.75 37.81 98.12 C34.79 103.74 30.93 108.92 26 113 C22.02 114.13 20.65 114.31 16.88 112.5 C9.88 105.87 9.46 91.41 8.49 82.34 C8 79.03 7.15 76.13 6 73 C5.44 72.93 4.87 72.86 4.29 72.79 C1.69 72.46 -0.9 72.1 -3.5 71.75 C-4.39 71.64 -5.27 71.53 -6.19 71.42 C-12.9 70.48 -19.08 68.92 -24 64 C-24.75 58.62 -23.65 55.43 -20.68 51.11 C-16.12 45.38 -10.95 40.61 -5 36.38 C-1.9 34.03 -1.12 33.38 0.12 29.56 C0.02 26.52 -0.28 23.6 -0.74 20.59 C-1.11 16.94 -1.12 13.29 -1.12 9.62 C-1.13 8.91 -1.13 8.2 -1.14 7.46 C-1.12 2.25 -1.12 2.25 0 0 Z " fill="#F5ECDA" transform="translate(368,760)"/>
<path d="M0 0 C2 1 2 1 3.19 4.04 C3.63 5.38 4.07 6.72 4.5 8.06 C4.98 9.51 5.46 10.96 5.94 12.41 C6.69 14.71 7.44 17.01 8.18 19.31 C8.9 21.52 9.64 23.73 10.37 25.94 C10.59 26.63 10.81 27.32 11.03 28.03 C11.72 30.18 11.72 30.18 13 33 C15.84 34.32 15.84 34.32 17.83 33.19 C18.49 32.8 19.14 32.4 19.81 32 C22.84 30.38 23.87 30 27.44 30.12 C30 31 30 31 31 33 C31.33 37.27 31.24 39.55 29.19 43.38 C27.63 46.79 27.63 46.79 28.91 49.2 C29.85 50.74 30.8 52.26 31.78 53.78 C33.6 57.08 33.46 59.31 33 63 C30.28 65.72 22.44 64.31 18.78 64.31 C1.88 64.08 -11.84 57.77 -24 46 C-22.66 41.62 -20.94 37.74 -18.77 33.71 C-18.3 32.83 -18.3 32.83 -17.82 31.94 C-17.16 30.71 -16.49 29.47 -15.82 28.24 C-14.83 26.4 -13.84 24.56 -12.85 22.71 C-8.73 15.05 -4.44 7.49 0 0 Z " fill="#8C362C" transform="translate(474,628)"/>
<path d="M0 0 C0.99 0.33 1.98 0.66 3 1 C1.63 17.65 -1.15 35.34 -14.25 47.06 C-18.06 50.2 -20.6 51.49 -25.71 51.4 C-31.59 50.37 -36.41 46.06 -40.19 41.62 C-47.97 30.35 -51.44 15.49 -51 2 C-50.01 2.5 -50.01 2.5 -49 3 C-48.41 2.82 -47.82 2.63 -47.21 2.45 C-44.17 1.83 -42.42 2.73 -39.56 3.88 C-29.13 8.02 -17.77 8.59 -7.05 4.94 C-4.35 3.7 -2.26 1.92 0 0 Z " fill="#68C1C8" transform="translate(602,901)"/>
<path d="M0 0 C5.21 1.36 8.13 3.4 12 7 C15.03 13.07 12.43 20.7 10.47 26.74 C7.02 34.39 0.04 41.41 -7.44 45.25 C-10.54 46.16 -12.78 46.4 -16 46 C-20.02 43.24 -22.6 40.06 -25.44 36.12 C-33.21 25.68 -45.39 10.2 -58 6 C-58 5.34 -58 4.68 -58 4 C-52.08 1.97 -46.62 1.58 -40.38 1.56 C-38.87 1.56 -38.87 1.56 -37.34 1.55 C-28.4 1.69 -20.25 3.42 -11.66 5.81 C-7.12 7.06 -2.69 7.59 2 8 C1.48 5.24 0.89 2.67 0 0 Z " fill="#C02041" transform="translate(732,504)"/>
<path d="M0 0 C1.45 0.03 1.45 0.03 2.94 0.06 C4.04 2.27 4.14 3.66 4.3 6.11 C6.54 36.83 6.54 36.83 22.19 62.31 C24.38 64.01 26.63 65.52 28.94 67.06 C28.94 67.72 28.94 68.38 28.94 69.06 C30.26 69.39 31.58 69.72 32.94 70.06 C22.8 74.53 12.7 73.92 2.38 70.45 C-9 65.86 -19.14 59.45 -26.06 49.06 C-25.78 45.33 -23.75 43.21 -21.38 40.44 C-12.2 29.24 -7.4 18.03 -4.68 3.87 C-3.85 0.08 -3.85 0.08 0 0 Z " fill="#68C1C8" transform="translate(718.0625,842.9375)"/>
<path d="M0 0 C4.38 1.67 8.57 3.64 12.75 5.75 C13.43 6.07 14.12 6.39 14.82 6.73 C18.09 8.4 19.77 9.32 20.97 12.88 C21 16.01 20.92 19.11 20.75 22.25 C20.72 30.03 22.73 35.26 27.84 41.11 C35.87 48.82 46.41 54.5 56.91 58.02 C59.5 59.23 61.03 60.96 63 63 C58.6 63.12 54.21 63.19 49.81 63.25 C47.97 63.3 47.97 63.3 46.1 63.35 C34.44 63.47 24.34 61.2 14.62 54.62 C14.04 54.23 13.45 53.83 12.84 53.42 C3.42 46.97 -6.12 38.56 -11 28 C-10.93 22.08 -7.85 16.53 -5.5 11.19 C-5.08 10.22 -4.67 9.26 -4.24 8.26 C-1.15 1.15 -1.15 1.15 0 0 Z " fill="#C12042" transform="translate(486,745)"/>
<path d="M0 0 C3.63 2.77 5.71 5.62 7.21 9.9 C7.97 15.73 7.21 19.19 3.81 24.01 C-2.04 30.93 -8.88 33.73 -17.79 34.9 C-25.78 35.16 -33.63 33.69 -39.68 28.17 C-42.63 24.71 -44.16 21.86 -44.35 17.27 C-43.86 11.23 -41.6 7.45 -37.29 3.27 C-26.77 -5.39 -11.81 -7.29 0 0 Z " fill="#EA997B" transform="translate(625.78515625,678.1015625)"/>
<path d="M0 0 C0.99 0.66 1.98 1.32 3 2 C3.69 5.75 3.51 9.57 3.5 13.38 C3.53 14.43 3.56 15.48 3.59 16.57 C3.61 24.35 3.61 24.35 0.61 27.57 C-0.68 28.28 -0.68 28.28 -2 29 C-2.76 29.8 -3.53 30.61 -4.31 31.44 C-13.03 39.75 -21.8 41.38 -33.57 41.19 C-38 40.94 -41.77 40.36 -46 39 C-46.5 37.51 -46.5 37.51 -47 36 C-47.66 36 -48.32 36 -49 36 C-49 30.72 -49 25.44 -49 20 C-46.67 19.46 -44.34 18.93 -41.94 18.38 C-26.66 14.62 -13.52 7.84 0 0 Z " fill="#F5ECDA" transform="translate(779,824)"/>
<path d="M0 0 C3.67 0.6 5.72 2.14 8.56 4.5 C9.44 5.22 10.32 5.95 11.23 6.69 C12.14 7.45 13.06 8.22 14 9 C15.81 10.48 17.62 11.96 19.44 13.44 C21.29 14.96 23.15 16.48 25 18 C26.83 19.5 28.67 21 30.5 22.5 C31.4 23.23 32.29 23.97 33.21 24.72 C35.16 26.32 37.11 27.91 39.07 29.5 C40.06 30.3 41.04 31.11 42.06 31.94 C42.96 32.67 43.86 33.4 44.79 34.15 C47 36 47 36 49 38 C49 38.99 49 39.98 49 41 C47.62 42.18 46.23 43.35 44.79 44.47 C40.59 48.05 37.05 52.42 34 57 C23.93 55.13 14.95 42.04 8 35 C6.07 37.5 4.35 39.99 2.81 42.75 C2.21 43.82 1.62 44.89 1 46 C-3.64 45.48 -8.2 44.81 -12.79 43.96 C-13.77 43.78 -14.75 43.6 -15.76 43.42 C-16.87 43.21 -16.87 43.21 -18 43 C-17.91 44.01 -17.82 45.02 -17.72 46.06 C-17.39 49.81 -17.05 53.56 -16.72 57.31 C-16.57 58.93 -16.43 60.55 -16.28 62.17 C-16.07 64.51 -15.86 66.84 -15.66 69.17 C-15.59 69.89 -15.53 70.62 -15.46 71.36 C-15.17 74.6 -15 77.75 -15 81 C-19.82 81.02 -24.65 81.04 -29.47 81.05 C-31.11 81.06 -32.76 81.07 -34.4 81.08 C-36.75 81.09 -39.11 81.09 -41.46 81.1 C-42.2 81.1 -42.94 81.11 -43.7 81.11 C-45.47 81.11 -47.23 81.06 -49 81 C-49.33 80.67 -49.66 80.34 -50 80 C-49.86 72.31 -48.06 64.7 -46.5 57.21 C-46.25 56.03 -46.01 54.84 -45.76 53.62 C-44.99 49.87 -44.21 46.12 -43.44 42.38 C-42.91 39.82 -42.39 37.26 -41.86 34.71 C-40.58 28.47 -39.29 22.23 -38 16 C-33.64 16.52 -29.35 17.05 -25.06 17.97 C-24.23 18.15 -23.4 18.33 -22.54 18.51 C-21.7 18.69 -20.86 18.87 -20 19.06 C-19.13 19.25 -18.26 19.44 -17.36 19.63 C-15.24 20.08 -13.12 20.54 -11 21 C-9.35 17.88 -7.71 14.75 -6.06 11.62 C-5.59 10.74 -5.13 9.85 -4.64 8.93 C-4.19 8.08 -3.75 7.23 -3.29 6.35 C-2.87 5.57 -2.46 4.78 -2.03 3.97 C-1.34 2.65 -0.66 1.33 0 0 Z M2 6 C0.84 7.41 0.84 7.41 -0.25 9.31 C-0.68 10.03 -1.11 10.75 -1.56 11.49 C-4.12 15.95 -6.57 20.47 -9 25 C-9.57 24.88 -10.15 24.76 -10.74 24.63 C-13.37 24.08 -16 23.54 -18.62 23 C-19.98 22.71 -19.98 22.71 -21.36 22.42 C-22.25 22.24 -23.13 22.06 -24.04 21.88 C-25.25 21.62 -25.25 21.62 -26.48 21.37 C-29.35 20.95 -32.11 20.94 -35 21 C-38.16 35.36 -41.22 49.73 -43.94 64.19 C-44.16 65.36 -44.38 66.53 -44.61 67.73 C-44.81 68.8 -45.01 69.88 -45.21 70.98 C-45.39 71.93 -45.57 72.88 -45.75 73.85 C-45.83 74.56 -45.91 75.27 -46 76 C-44.95 77.27 -44.95 77.27 -42.59 77.11 C-41.55 77.11 -40.51 77.1 -39.43 77.1 C-38.31 77.09 -37.18 77.09 -36.03 77.09 C-34.25 77.08 -34.25 77.08 -32.44 77.06 C-31.25 77.06 -30.06 77.05 -28.84 77.05 C-25.89 77.04 -22.95 77.02 -20 77 C-19.69 64.25 -20.82 51.69 -22 39 C-16.58 39.5 -11.22 40.03 -5.88 41.06 C-4.27 41.37 -2.66 41.68 -1 42 C2.47 35.56 2.47 35.56 6 29 C9.75 30.88 11.55 32.34 14.41 35.28 C15.23 36.12 16.06 36.96 16.91 37.83 C18.64 39.61 20.36 41.39 22.09 43.17 C22.92 44.01 23.74 44.85 24.59 45.72 C25.34 46.49 26.09 47.26 26.87 48.06 C29.12 50.29 29.12 50.29 33 52 C36.3 48.37 39.6 44.74 43 41 C40.98 35.96 39.05 33.93 35 30.69 C34.41 30.21 33.83 29.72 33.22 29.23 C31.49 27.81 29.75 26.4 28 25 C27.15 24.31 26.29 23.61 25.41 22.89 C22.95 20.91 20.48 18.96 18 17 C16.78 16.02 15.56 15.04 14.34 14.06 C13.06 13.04 11.78 12.02 10.5 11 C9.89 10.51 9.28 10.01 8.64 9.5 C5.68 6.87 5.68 6.87 2 6 Z " fill="#37104B" transform="translate(594,398)"/>
<path d="M0 0 C17.16 12.7 28.97 30.02 38.79 48.66 C39.32 49.66 39.32 49.66 39.87 50.68 C44.35 59.07 44.35 59.07 45.79 62.66 C45.29 64.15 45.29 64.15 44.79 65.66 C41.28 62.51 39.12 58.99 36.85 54.91 C26.11 36.39 10.46 17.22 -10.46 10.39 C-19.51 8 -26.87 8.06 -35.21 12.66 C-45.66 20.33 -52.39 30.26 -58.21 41.66 C-58.87 41 -59.53 40.34 -60.21 39.66 C-54.52 23.31 -42.64 6.07 -27.21 -2.34 C-18.49 -6.33 -8.1 -4.9 0 0 Z " fill="#F4EBD8" transform="translate(811.2109375,531.3359375)"/>
<path d="M0 0 C0.33 0 0.66 0 1 0 C1.82 12.44 -3 21.67 -11 31 C-21.85 42.11 -34.9 48.94 -50.59 49.29 C-58.49 49.36 -65.06 49.02 -72.46 45.88 C-75.44 44.85 -77.86 44.86 -81 45 C-81.99 45 -82.98 45 -84 45 C-84.33 43.35 -84.66 41.7 -85 40 C-82.71 38.85 -81.36 38.86 -78.81 38.82 C-54.13 38.23 -28.82 32.58 -10.68 14.71 C-6.85 10.6 -3.71 6.3 -0.91 1.43 C-0.61 0.96 -0.31 0.49 0 0 Z " fill="#EA997B" transform="translate(744,653)"/>
<path d="M0 0 C3.03 2.53 3.98 5.2 5.31 8.88 C8.77 17.42 13.87 20.25 22 24 C27.89 26.79 27.89 26.79 29 29 C28.13 29.31 27.26 29.63 26.37 29.95 C14.72 33.87 14.72 33.87 6.95 42.85 C5.06 47.15 3.51 51.56 2 56 C-0.85 53.38 -2.59 51.22 -4 47.62 C-8.83 36.29 -16.01 32.55 -27 28 C-25.47 24.94 -23.06 24.88 -19.88 23.81 C-12.27 20.93 -7.9 18.21 -4.51 10.7 C-3.61 8.38 -2.75 6.04 -1.95 3.7 C-1 1 -1 1 0 0 Z " fill="#F5CB36" transform="translate(871,483)"/>
<path d="M0 0 C-0.81 6.44 -4.86 10.25 -9 15 C-9.6 15.71 -10.2 16.42 -10.82 17.14 C-23.32 30.83 -47.53 40.12 -65.89 41.16 C-68 41 -68 41 -69 40 C-69.26 37.86 -69.46 35.71 -69.62 33.56 C-69.72 32.39 -69.82 31.21 -69.91 30 C-70 27 -70 27 -69 25 C-66.86 24.41 -66.86 24.41 -64.03 23.92 C-62.99 23.73 -61.96 23.55 -60.89 23.35 C-59.77 23.15 -58.65 22.96 -57.5 22.75 C-38.78 19.17 -19.21 13.17 -3.85 1.34 C-2 0 -2 0 0 0 Z " fill="#484AA2" transform="translate(691,861)"/>
<path d="M0 0 C3.91 1.36 6.61 3.15 9.81 5.75 C16.6 10.85 24.03 13.36 32 16 C30.77 19.68 29.45 19.89 26.17 21.62 C22.5 23.95 19.48 27 16.33 29.98 C11.78 33.93 8.74 34.27 2.69 34.25 C1.41 34.26 0.14 34.26 -1.18 34.27 C-5.22 33.98 -8.22 33.44 -12 32 C-13.29 28.12 -12.42 27.05 -10.76 23.38 C-10.03 21.73 -10.03 21.73 -9.28 20.04 C-8.75 18.9 -8.23 17.75 -7.69 16.56 C-7.18 15.42 -6.66 14.27 -6.13 13.09 C-2.19 4.29 -2.19 4.29 0 0 Z " fill="#EA997B" transform="translate(444,685)"/>
<path d="M0 0 C1.98 1.65 3.96 3.3 6 5 C4.94 8.19 4.49 8.67 1.93 10.6 C0.97 11.33 0.97 11.33 -0.01 12.07 C-0.71 12.59 -1.41 13.1 -2.12 13.62 C-3.2 14.42 -3.2 14.42 -4.31 15.24 C-22.89 28.79 -44.3 42.3 -68.11 40.3 C-72.69 39.57 -75.77 37.18 -79 34 C-79.55 33.49 -80.09 32.99 -80.66 32.46 C-85.34 27.6 -88.64 21.29 -91 15 C-90.67 14.01 -90.34 13.02 -90 12 C-88.02 11.67 -86.04 11.34 -84 11 C-83.38 12.41 -83.38 12.41 -82.75 13.85 C-79.35 21.29 -76.48 26.99 -69 31 C-68.12 31.55 -68.12 31.55 -67.23 32.11 C-60.13 34.94 -49.97 33.84 -43 31.12 C-30 24.84 -18.72 16.59 -8 7 C-6.4 5.6 -4.79 4.21 -3.19 2.81 C-2.12 1.88 -1.06 0.94 0 0 Z " fill="#F5EBD9" transform="translate(788,787)"/>
<path d="M0 0 C4.01 2.98 6.26 6.33 8 11 C8.55 14.82 8.39 18.08 6.88 21.69 C1.27 28.6 1.27 28.6 -3.59 29.45 C-9.9 29.7 -13.99 28.86 -19 25 C-21.75 21.52 -22.83 18.42 -23 14 C-22.1 9.4 -20.92 5.95 -17.62 2.56 C-16.76 2.05 -15.89 1.53 -15 1 C-13.92 0.35 -13.92 0.35 -12.81 -0.31 C-8.42 -1.39 -4.37 -1.11 0 0 Z " fill="#F5CB36" transform="translate(844,429)"/>
<path d="M0 0 C2.03 1.53 2.75 2.86 3.63 5.23 C3.25 7.98 3.25 7.98 2.63 10.23 C-1.95 11.08 -6.14 11.2 -10.81 11.04 C-20.22 11.04 -24.49 14.07 -31.06 20.61 C-34.69 24.32 -38.17 28.14 -41.37 32.23 C-42.36 31.9 -43.35 31.57 -44.37 31.23 C-45.34 22.68 -41.34 14.67 -36.5 7.79 C-27.1 -3.67 -13.2 -6.53 0 0 Z " fill="#37104B" transform="translate(620.37109375,634.76953125)"/>
<path d="M0 0 C2.43 1.18 3.96 2.49 5.36 4.82 C8.45 14.4 4.18 25.39 0.06 34 C-1.62 37.04 -3.47 39.53 -5.94 42 C-9.23 41.83 -10.67 41.23 -13.19 39.06 C-15.69 36.11 -16.29 34.11 -16.21 30.23 C-15.01 20.44 -9.93 10.41 -4.94 2 C-1.94 0 -1.94 0 0 0 Z " fill="#F5ECDA" transform="translate(784.9375,586)"/>
<path d="M0 0 C0.68 0.27 1.36 0.54 2.06 0.81 C2.31 4.88 2.31 7.33 0.44 11 C-1.28 13.68 -1.28 13.68 -0.19 16.12 C0.96 17.75 0.96 17.75 2.06 18.81 C4.35 19.05 6.64 19.2 8.93 19.34 C11.06 19.81 11.06 19.81 13.06 22.81 C12.9 26.07 12.53 27.38 10.12 29.62 C8.06 30.81 8.06 30.81 6.06 30.81 C5.73 33.12 5.4 35.43 5.06 37.81 C5.68 38.08 6.3 38.35 6.94 38.62 C9.06 39.81 9.06 39.81 11.06 42.81 C11.12 44.75 11.12 44.75 10.06 46.81 C8.31 47.79 6.55 48.76 4.77 49.68 C2.14 51.43 1.37 54.01 0.06 56.81 C-2.62 58.69 -2.62 58.69 -4.94 59.81 C-5.06 53.43 -5.06 53.43 -4.45 50.4 C-3.55 45.84 -3.71 41.25 -3.69 36.62 C-3.67 35.63 -3.65 34.64 -3.62 33.62 C-3.58 25.7 -4.44 18.02 -9.19 11.44 C-10.94 8.81 -10.94 8.81 -10.75 6.82 C-8.98 2.43 -4.63 -0.3 0 0 Z " fill="#F9C18F" transform="translate(701.9375,732.1875)"/>
<path d="M0 0 C2.62 1.81 2.62 1.81 4.19 4.12 C4.82 7.99 3.78 9.59 1.62 12.81 C-5.68 19.95 -11.51 21.14 -21.39 21.21 C-24.67 20.77 -26.02 20.09 -28.38 17.81 C-29.38 15.56 -29.38 15.56 -29.38 12.81 C-26.35 5.46 -21.46 2.6 -14.38 -0.5 C-9.18 -1.69 -5.06 -1.78 0 0 Z " fill="#EA9A7B" transform="translate(860.375,687.1875)"/>
<path d="M0 0 C2.07 0.74 4.13 1.49 6.19 2.25 C7.34 2.67 8.48 3.09 9.67 3.52 C14.29 5.58 17.19 7.79 20 12 C20.53 14.74 20.54 17.26 20 20 C17.24 22.85 14.57 23.2 10.75 23.38 C2.66 23.07 -3.89 20.22 -10 15 C-11.03 13.2 -11.03 13.2 -11 11 C-9.24 8.87 -7.58 7.11 -5.56 5.25 C-5.03 4.74 -4.5 4.24 -3.96 3.71 C-2.65 2.47 -1.33 1.23 0 0 Z " fill="#EA997B" transform="translate(749,688)"/>
<path d="M0 0 C-0.61 5.49 -0.61 5.49 -2.2 7.57 C-16.98 19.25 -48.3 16.48 -66 16 C-66 15.34 -66 14.68 -66 14 C-64.67 13.82 -64.67 13.82 -63.3 13.64 C-42.93 10.84 -23.09 7.91 -4.06 -0.33 C-2 -1 -2 -1 0 0 Z " fill="#C12042" transform="translate(682,783)"/>
<path d="M0 0 C5.21 -0.43 5.21 -0.43 8 0 C9.69 2 9.69 2 11 5 C13.79 10.61 16.69 14.35 22.4 17.15 C27.93 18.96 33.99 19.47 39.32 16.87 C41.46 15.41 41.46 15.41 44 13 C45 16 45 16 44.31 18.44 C42.28 22.41 40.25 24.58 36 26 C29.4 26.7 24.33 26.21 19 22 C12.13 16.36 5.33 10.14 0 3 C0 2.01 0 1.02 0 0 Z " fill="#7D5CAA" transform="translate(602,814)"/>
<path d="M0 0 C1.91 1.73 3.06 3.12 4.25 5.44 C6.65 8.95 9.23 10.08 13 12 C13 12.66 13 13.32 13 14 C14.32 14.33 15.64 14.66 17 15 C16.31 15.23 15.63 15.46 14.92 15.7 C9.32 17.62 9.32 17.62 5 21.44 C4.67 22.28 4.34 23.13 4 24 C3.61 24.93 3.22 25.86 2.81 26.81 C2.54 27.53 2.28 28.26 2 29 C-0.51 26.68 -2.46 24.35 -4.31 21.5 C-6.96 17.66 -9.85 16.04 -14 14 C-11 12 -11 12 -8.56 10.69 C-4.46 7.98 -1.98 4.46 0 0 Z " fill="#F4CA36" transform="translate(821,852)"/>
<path d="M0 0 C0.66 1.65 1.32 3.3 2 5 C-0.44 7.03 -2.8 8.37 -5.69 9.62 C-13.12 13.24 -18.85 19.96 -23 27 C-24.32 26.67 -25.64 26.34 -27 26 C-26.62 17.86 -24.88 11.4 -18.81 5.69 C-13.3 1.35 -6.99 -0.54 0 0 Z " fill="#37104B" transform="translate(851,658)"/>
<path d="M0 0 C-1.28 2.65 -2.58 5.29 -3.88 7.94 C-4.24 8.69 -4.6 9.45 -4.98 10.22 C-5.33 10.94 -5.69 11.66 -6.05 12.4 C-6.38 13.07 -6.7 13.73 -7.04 14.42 C-8 16 -8 16 -10 17 C-10.19 16.43 -10.39 15.87 -10.59 15.29 C-10.85 14.55 -11.11 13.82 -11.38 13.06 C-11.63 12.33 -11.89 11.6 -12.15 10.85 C-12.85 8.81 -12.85 8.81 -15 8 C-16.66 7.95 -18.32 7.96 -19.98 8.01 C-21.48 8.03 -21.48 8.03 -23.01 8.06 C-25.11 8.1 -27.21 8.15 -29.31 8.21 C-35.34 8.3 -39.71 8.03 -45 5 C-45.33 4.34 -45.66 3.68 -46 3 C-45.3 2.96 -44.6 2.91 -43.88 2.86 C-25.82 1.74 -25.82 1.74 -7.99 -1.21 C-3.3 -2.2 -3.3 -2.2 0 0 Z " fill="#F5ECDA" transform="translate(460,763)"/>
<path d="M0 0 C2.24 1.81 2.86 3.07 3.28 5.9 C3.43 9.11 3.2 11.5 2 14.5 C-0.6 16.45 -2.8 16.5 -6 16.31 C-9.05 15.84 -10.74 15.12 -13 13 C-14.15 9.1 -14.4 6.96 -12.81 3.19 C-8.95 -1.47 -5.82 -1.48 0 0 Z " fill="#F5ECDA" transform="translate(808,474)"/>
<path d="M0 0 C3.73 0.31 7.46 0.62 11.19 0.94 C12.77 1.07 12.77 1.07 14.38 1.2 C15.92 1.33 15.92 1.33 17.48 1.46 C18.89 1.58 18.89 1.58 20.32 1.7 C22.93 1.99 25.44 2.45 28 3 C27.45 3.25 26.9 3.5 26.34 3.76 C23.55 5.24 21.11 7 18.56 8.88 C17.64 9.55 16.71 10.23 15.75 10.93 C13.13 12.9 10.55 14.93 8 17 C7.03 15.49 6.08 13.96 5.12 12.44 C4.32 11.17 4.32 11.17 3.51 9.87 C1.79 6.59 0.91 3.58 0 0 Z " fill="#7C5BA9" transform="translate(513,821)"/>
<path d="M0 0 C0.78 0 1.56 0.01 2.36 0.01 C3.21 0.01 4.05 0.02 4.93 0.02 C5.81 0.03 6.7 0.04 7.61 0.06 C8.5 0.06 9.38 0.06 10.3 0.06 C16.9 0.1 16.9 0.1 18.04 1.24 C18.59 5.24 18.36 6.8 15.98 10.12 C13.04 12.24 13.04 12.24 9.73 12.87 C5.01 12.07 1.66 10.38 -1.96 7.24 C-3.46 4.43 -3.46 4.43 -3.96 2.24 C-1.96 0.24 -1.96 0.24 0 0 Z " fill="#F5CB36" transform="translate(622.955322265625,813.757080078125)"/>
<path d="M0 0 C0.66 0 1.32 0 2 0 C2.33 2.31 2.66 4.62 3 7 C3.72 7.25 4.44 7.5 5.19 7.75 C8.25 9.11 10.47 10.83 13 13 C11.74 13.35 10.48 13.7 9.19 14.06 C6.66 14.99 5.33 15.51 3.8 17.76 C2.88 19.89 2.88 19.89 2 23 C1.34 22.67 0.68 22.34 0 22 C0 21.34 0 20.68 0 20 C-0.66 20 -1.32 20 -2 20 C-2.43 19.22 -2.87 18.43 -3.31 17.62 C-5.27 14.58 -6.6 14.01 -10 13 C-10 12.34 -10 11.68 -10 11 C-8.91 10.48 -7.81 9.97 -6.69 9.44 C-2.45 7.06 -1.48 4.53 0 0 Z " fill="#F4EBD8" transform="translate(608,312)"/>
<path d="M0 0 C4.88 0.88 4.88 0.88 6 2 C5.96 4.66 5.86 7.28 5.69 9.94 C5.63 11.05 5.63 11.05 5.58 12.19 C5.24 17.76 5.24 17.76 3 20 C-0.54 19.46 -0.54 19.46 -2 18 C-1.94 15.53 -1.81 13.09 -1.62 10.62 C-1.58 9.94 -1.54 9.25 -1.49 8.55 C-1.28 5.5 -0.97 2.91 0 0 Z " fill="#37104B" transform="translate(724,391)"/>
<path d="M0 0 C0.99 0 1.98 0 3 0 C5.52 3.78 5.1 5.53 4.75 10 C4.66 11.24 4.57 12.48 4.48 13.75 C4 17 4 17 2 20 C0.35 19.67 -1.3 19.34 -3 19 C-3.1 13.24 -3.18 7.65 -2 2 C-1.34 1.34 -0.68 0.68 0 0 Z " fill="#37104B" transform="translate(692,386)"/>
<path d="M0 0 C1.81 1.06 1.81 1.06 3 3 C3.5 6.5 3.5 6.5 3 10 C0.5 11.94 0.5 11.94 -2 13 C-5.47 11.02 -5.47 11.02 -9 9 C-8.69 5.62 -8.69 5.62 -8 2 C-4.77 -0.16 -3.75 -0.47 0 0 Z " fill="#F5CB36" transform="translate(897,557)"/>
<path d="M0 0 C2.45 3.67 2.32 5.66 2 10 C0 12 0 12 -2.88 12.31 C-6.26 11.97 -7.54 11.27 -10 9 C-9.69 5.62 -9.69 5.62 -9 2 C-5.55 -0.3 -4.05 -0.43 0 0 Z " fill="#F5CB36" transform="translate(657,324)"/>
<path d="M0 0 C1.94 1.56 1.94 1.56 3 4 C2.69 7.75 2.69 7.75 2 11 C-4.26 12.32 -4.26 12.32 -7.44 10.94 C-9 9 -9 9 -9.44 6 C-9 3 -9 3 -7.88 1.12 C-5.09 -0.55 -3.18 -0.46 0 0 Z " fill="#F5ECDA" transform="translate(855,836)"/>
<path d="M0 0 C1.36 3.59 2.1 7.26 3 11 C-1.29 10.34 -5.58 9.68 -10 9 C-10.33 8.01 -10.66 7.02 -11 6 C-5.39 -1.8 -5.39 -1.8 0 0 Z " fill="#F9C18F" transform="translate(721,593)"/>
<path d="M0 0 C3 1 3 1 3.91 2.64 C5.34 6.75 6.46 10.66 7 15 C5.02 15.99 5.02 15.99 3 17 C-0.25 14.64 -0.89 11.75 -1.72 8 C-2.08 5.45 -1.81 3.44 -1 1 C-0.67 0.67 -0.34 0.34 0 0 Z " fill="#37104B" transform="translate(390,793)"/>
<path d="M0 0 C1.96 0.21 1.96 0.21 4 1 C5.01 2.64 5.01 2.64 5.69 4.69 C6.04 5.76 6.04 5.76 6.41 6.86 C7.15 9.55 7.65 12.23 8 15 C6.19 15.62 6.19 15.62 4 16 C0.46 13.64 0.23 12.08 -0.66 8.04 C-1.06 5.64 -1.22 3.42 -1 1 C-0.67 0.67 -0.34 0.34 0 0 Z " fill="#37104B" transform="translate(414,788)"/>
<path d="M0 0 C0.33 3.96 0.66 7.92 1 12 C-2.33 10.33 -5.67 8.67 -9 7 C-8.07 5.82 -7.13 4.66 -6.19 3.5 C-5.67 2.85 -5.14 2.2 -4.61 1.53 C-3 0 -3 0 0 0 Z " fill="#D4AA16" transform="translate(711,714)"/>
<path d="M0 0 C1.65 0.33 3.3 0.66 5 1 C5.38 2.66 5.71 4.32 6 6 C5 7 5 7 2.56 7.25 C1.72 7.17 0.87 7.09 0 7 C-0.66 6.01 -1.32 5.02 -2 4 C-1.34 2.68 -0.68 1.36 0 0 Z " fill="#F5CB36" transform="translate(813,819)"/>
</svg>
